<svg width="24" height="24" viewBox="0 0 24 24" fill="none" xmlns="http://www.w3.org/2000/svg">
  <path d="M6.194 14.644c0 1.16-.943 2.107-2.107 2.107-1.16 0-2.107-.943-2.107-2.107 0-1.16.943-2.106 2.107-2.106h2.107v2.106zm1.061 0c0-1.16.943-2.107 2.107-2.107 1.16 0 2.107.943 2.107 2.107v5.274c0 1.16-.943 2.107-2.107 2.107-1.16 0-2.107-.943-2.107-2.107v-5.274zm2.107-8.455c-1.16 0-2.107-.943-2.107-2.107 0-1.16.943-2.107 2.107-2.107s2.107.943 2.107 2.107v2.107h-2.107zm0 1.061c1.16 0 2.107.943 2.107 2.107s-.943 2.107-2.107 2.107h-5.274c-1.16 0-2.107-.943-2.107-2.107s.943-2.107 2.107-2.107h5.274zm8.455 2.107c0-1.16.943-2.107 2.107-2.107s2.107.943 2.107 2.107-.943 2.107-2.107 2.107h-2.107v-2.107zm-1.061 0c0 1.16-.943 2.107-2.107 2.107-1.16 0-2.107-.943-2.107-2.107v-5.274c0-1.16.943-2.107 2.107-2.107s2.107.943 2.107 2.107v5.274zm-2.107 8.455c1.16 0 2.107.943 2.107 2.107s-.943 2.107-2.107 2.107-2.107-.943-2.107-2.107v-2.107h2.107zm0-1.061c-1.16 0-2.107-.943-2.107-2.107s.943-2.107 2.107-2.107h5.274c1.16 0 2.107.943 2.107 2.107s-.943 2.107-2.107 2.107h-5.274z" fill="#E01E5A"/>
</svg> 