<svg width="24" height="24" viewBox="0 0 24 24" fill="none" xmlns="http://www.w3.org/2000/svg">
  <path d="M18.561 13.158c-1.102 0-2.135-.107-3.107-.316a5.774 5.774 0 0 1-1.857.857c.181.388.277.796.277 1.224 0 1.803-1.464 3.267-3.267 3.267s-3.267-1.464-3.267-3.267c0-.428.096-.836.277-1.224-.619-.2-1.183-.486-1.857-.857-1.209.209-2.005.316-3.107.316C2.35 13.158 0 10.808 0 7.974c0-2.834 2.35-5.184 5.184-5.184 2.834 0 5.184 2.35 5.184 5.184 0 .428-.096.836-.277 1.224.619.2 1.183.486 1.857.857.972.209 2.005.316 3.107.316 2.834 0 5.184-2.35 5.184-5.184S21.395 0 18.561 0c-2.834 0-5.184 2.35-5.184 5.184 0 .428.096.836.277 1.224-.619.2-1.183.486-1.857.857-.972.209-2.005.316-3.107.316-2.834 0-5.184 2.35-5.184 5.184S15.727 13.158 18.561 13.158z" fill="#14A800"/>
</svg> 